<svg width="24" height="24" viewBox="0 0 24 24" fill="none" xmlns="http://www.w3.org/2000/svg">
<path d="M9 5.00012C10.0609 5.00012 11.0783 5.42155 11.8284 6.17169C12.5786 6.92184 13 7.93926 13 9.00012C13 10.061 12.5786 11.0784 11.8284 11.8285C11.0783 12.5787 10.0609 13.0001 9 13.0001C7.93913 13.0001 6.92172 12.5787 6.17157 11.8285C5.42143 11.0784 5 10.061 5 9.00012C5 7.93926 5.42143 6.92184 6.17157 6.17169C6.92172 5.42155 7.93913 5.00012 9 5.00012ZM9 15.0001C11.67 15.0001 17 16.3401 17 19.0001V21.0001H1V19.0001C1 16.3401 6.33 15.0001 9 15.0001ZM16.76 5.36012C18.78 7.56012 18.78 10.6101 16.76 12.6301L15.08 10.9401C15.92 9.76012 15.92 8.23012 15.08 7.05012L16.76 5.36012ZM20.07 2.00012C24 6.05012 23.97 12.1101 20.07 16.0001L18.44 14.3701C21.21 11.1901 21.21 6.65012 18.44 3.63012L20.07 2.00012Z" fill="black"/>
</svg>
