<svg width="24" height="24" viewBox="0 0 24 24" fill="none" xmlns="http://www.w3.org/2000/svg">
<path d="M3 13.9999L3.5 14.0699L8.07 9.49988C7.89 8.84988 8.06 8.10988 8.59 7.58988C9.37 6.79988 10.63 6.79988 11.41 7.58988C11.94 8.10988 12.11 8.84988 11.93 9.49988L14.5 12.0699L15 11.9999C15.18 11.9999 15.35 11.9999 15.5 12.0699L19.07 8.49988C19 8.34988 19 8.17988 19 7.99988C19 7.46944 19.2107 6.96074 19.5858 6.58566C19.9609 6.21059 20.4696 5.99988 21 5.99988C21.5304 5.99988 22.0391 6.21059 22.4142 6.58566C22.7893 6.96074 23 7.46944 23 7.99988C23 8.53031 22.7893 9.03902 22.4142 9.41409C22.0391 9.78916 21.5304 9.99988 21 9.99988C20.82 9.99988 20.65 9.99988 20.5 9.92988L16.93 13.4999C17 13.6499 17 13.8199 17 13.9999C17 14.5303 16.7893 15.039 16.4142 15.4141C16.0391 15.7892 15.5304 15.9999 15 15.9999C14.4696 15.9999 13.9609 15.7892 13.5858 15.4141C13.2107 15.039 13 14.5303 13 13.9999L13.07 13.4999L10.5 10.9299C10.18 10.9999 9.82 10.9999 9.5 10.9299L4.93 15.4999L5 15.9999C5 16.5303 4.78929 17.039 4.41421 17.4141C4.03914 17.7892 3.53043 17.9999 3 17.9999C2.46957 17.9999 1.96086 17.7892 1.58579 17.4141C1.21071 17.039 1 16.5303 1 15.9999C1 15.4694 1.21071 14.9607 1.58579 14.5857C1.96086 14.2106 2.46957 13.9999 3 13.9999Z" fill="black"/>
</svg>
